<?xml version="1.0" encoding="utf-8"?>
<!-- Generator: Adobe Illustrator 25.2.1, SVG Export Plug-In . SVG Version: 6.00 Build 0)  -->
<svg version="1.1" id="Layer_1" xmlns="http://www.w3.org/2000/svg" xmlns:xlink="http://www.w3.org/1999/xlink" x="0px" y="0px"
	 viewBox="0 0 135.8 41.1" style="enable-background:new 0 0 135.8 41.1;" xml:space="preserve">
<style type="text/css">
	.st0{fill:#F1F2F2;}
</style>
<g>
	<path class="st0" d="M27.5,40.4h-8.3V20.6h-7.1v19.8H3.7V20.6H0v-8h3.7C3.7,4.8,8,0.7,17.2,0.7c2.3,0,4.6,0.3,7,0.8v7.7
		c-2.5-0.3-4.8-0.4-7-0.4c-3.1,0-5.2,0.7-5.2,3.9h15.5V40.4z"/>
	<path class="st0" d="M55,32c0,6.4-5.6,9.1-11.6,9.1c-5.6,0-9.8-2.1-12-6.6l7.2-4.1c0.7,2.1,2.3,3.3,4.7,3.3c2,0,3-0.6,3-1.7
		c0-3.1-13.7-1.4-13.7-11.1c0-6.1,5.1-9.1,10.9-9.1c4.5,0,8.5,2,10.8,6l-7.1,3.8c-0.8-1.4-1.9-2.4-3.7-2.4c-1.4,0-2.3,0.6-2.3,1.6
		C41.3,23.8,55,21.7,55,32z"/>
	<path class="st0" d="M85.8,23.3v17.1h-8.3V24.5c0-3.4-2.2-5.1-4.8-5.1c-3.1,0-5.2,1.8-5.2,5.7v15.2h-8.3V1.4h8.3v13.7
		c1.5-2.1,4.3-3.4,8-3.4C81,11.8,85.8,15.8,85.8,23.3z"/>
</g>
<g>
	<path class="st0" d="M125.8,5.1c0-2.7,2.3-5,5-5s5,2.3,5,5s-2.3,5-5,5C128.1,10.1,125.8,7.8,125.8,5.1z M126.6,12.5h8.3v27.8h-8.3
		V12.5z"/>
</g>
</svg>
