<?xml version="1.0" encoding="utf-8"?>
<!-- Generator: Adobe Illustrator 25.2.1, SVG Export Plug-In . SVG Version: 6.00 Build 0)  -->
<svg version="1.1" id="Layer_1" xmlns="http://www.w3.org/2000/svg" xmlns:xlink="http://www.w3.org/1999/xlink" x="0px" y="0px"
	 viewBox="0 0 135.8 40.8" style="enable-background:new 0 0 135.8 40.8;" xml:space="preserve">
<style type="text/css">
	.st0{fill:#F1F2F2;}
</style>
<g>
	<path class="st0" d="M27.5,40.3h-8.3V20.5h-7.1v19.8H3.7V20.5H0v-8h3.7C3.7,4.7,8,0.6,17.2,0.6c2.3,0,4.6,0.3,7,0.8v7.7
		c-2.5-0.3-4.8-0.4-7-0.4c-3.1,0-5.2,0.7-5.2,3.9h15.5V40.3z"/>
	<path class="st0" d="M55,31.9c0,6.4-5.6,9.1-11.6,9.1c-5.6,0-9.8-2.1-12-6.6l7.2-4.1c0.7,2.1,2.3,3.3,4.7,3.3c2,0,3-0.6,3-1.7
		c0-3.1-13.7-1.4-13.7-11.1c0-6.1,5.1-9.1,10.9-9.1c4.5,0,8.5,2,10.8,6l-7.1,3.8c-0.8-1.4-1.9-2.4-3.7-2.4c-1.4,0-2.3,0.6-2.3,1.6
		C41.3,23.7,55,21.6,55,31.9z"/>
	<path class="st0" d="M85.8,23.2v17.1h-8.3V24.4c0-3.4-2.2-5.1-4.8-5.1c-3.1,0-5.2,1.8-5.2,5.7v15.2h-8.3V1.3h8.3V15
		c1.5-2.1,4.3-3.4,8-3.4C81,11.7,85.8,15.7,85.8,23.2z"/>
</g>
<g>
	<path class="st0" d="M125.8,5c0-2.7,2.3-5,5-5s5,2.3,5,5s-2.3,5-5,5C128.1,10,125.8,7.7,125.8,5z M126.6,12.4h8.3v27.8h-8.3V12.4z"
		/>
</g>
<g>
	<g>
		<path class="st0" d="M99,32.4L99,32.4c-1,0-1.8-0.8-1.8-1.8v-9.8c0-1,0.8-1.8,1.8-1.8l0,0c1,0,1.8,0.8,1.8,1.8v9.8
			C100.8,31.6,100,32.4,99,32.4z"/>
	</g>
	<g>
		<path class="st0" d="M106,39.7L106,39.7c-1,0-1.8-0.8-1.8-1.8V13.6c0-1,0.8-1.8,1.8-1.8l0,0c1,0,1.8,0.8,1.8,1.8v24.3
			C107.9,38.9,107,39.7,106,39.7z"/>
	</g>
	<g>
		<path class="st0" d="M113.1,34.8L113.1,34.8c-1,0-1.8-0.8-1.8-1.8V18.4c0-1,0.8-1.8,1.8-1.8l0,0c1,0,1.8,0.8,1.8,1.8V33
			C114.9,34,114.1,34.8,113.1,34.8z"/>
	</g>
</g>
</svg>
